<?xml version="1.0" encoding="utf-8"?>
<!-- Generator: Adobe Illustrator 23.0.1, SVG Export Plug-In . SVG Version: 6.00 Build 0)  -->
<svg version="1.1" id="Calque_1" xmlns="http://www.w3.org/2000/svg" xmlns:xlink="http://www.w3.org/1999/xlink" x="0px" y="0px"
	 viewBox="0 0 647 617" style="enable-background:new 0 0 647 617;" xml:space="preserve">
<style type="text/css">
	.st0{fill:#FFFFFF;}
</style>
<g transform="translate(0.000000,617.000000) scale(0.100000,-0.100000)">
	<path class="st0" d="M1865,6154c-265-20-416-48-605-110c-290-97-521-233-698-413c-97-99-253-295-298-376c-88-157-110-202-175-360
		c-48-117-79-326-79-533c0-353,62-580,219-802c108-153,456-470,662-602c171-110,239-140,428-189c128-32,170-51,248-112
		c91-71,172-206,232-388c26-76,31-108,29-160l-3-64l-43-9c-52-11-147,4-200,32c-50,25-89,78-103,137c-27,111-40,152-59,182
		c-18,30-24,33-66,33c-40,0-51-5-80-36c-22-23-35-47-36-67c-5-98,18-147,78-167c70-23,118-132,81-181c-46-60-151-76-252-38
		c-69,26-104,15-142-42c-49-74-39-159,23-208c36-28,70-26,116,5c39,27,163,65,185,57c22-9,15-22-45-83c-37-38-66-60-80-60
		c-37,0-80-28-98-62c-21-41-6-96,37-132c54-46,107-28,145,47c22,41,93,126,117,139c15,7,23,6,35-6c24-24,19-138-8-176
		c-29-41-27-100,6-135c23-24,30-27,72-22c39,4,53,12,79,43c40,45,41,66,8,129c-31,57-46,194-25,220c42,51,80-26,72-150
		c-4-75-3-82,21-108c62-66,167-2,154,95c-3,22-12,47-21,57c-13,14-66,134-66,148c0,13,40-8,144-75c67-43,132-83,146-89
		c34-16,198-70,238-78c89-18,155,40,191,171c13,50,15,303,2,371c-5,26-15,82-21,123c-7,41-21,112-31,158c-25,108-25,109,14,132
		c24,15,49,20,102,19c142-1,269-74,660-384c227-180,412-293,545-333c36-11,119-25,185-32c188-17,189-18,128-90
		c-41-47-116-86-317-164c-271-105-386-198-386-311c0-71,84-192,190-276c41-32,214-139,225-139c3,0,30-16,61-36
		c80-51,134-110,134-145c0-47-38-115-87-155c-52-43-83-88-83-122c0-46,68-112,114-112c27,0,72,48,85,92c39,128,80,208,106,208
		c27,0,35-40,35-176c0-132,1-138,26-171c83-109,224-67,224,67c0,50-26,91-81,125c-30,20-41,35-54,77c-26,89-19,112,41,124
		c38,7,90-27,119-80c30-53,68-79,116-79c81,0,129,58,109,132c-21,78-76,121-157,122c-101,1-129,24-132,107c-1,44,13,48,118,32
		c127-20,154-13,187,51c18,35,2,91-34,120c-40,31-91,22-182-34c-91-57-132-62-155-17c-24,47-18,73,35,143c63,83,70,114,38,152
		c-19,21-33,28-58,27c-70-2-103-52-120-185c-4-37-14-74-20-82c-9-11-34-15-90-15h-77l-124,80c-68,44-125,84-127,89
		c-4,11,43,48,122,95c84,50,183,78,306,86c131,8,165,22,290,123c160,129,191,133,229,32c12-31,21-63,21-73c0-32,99-218,158-298
		c128-173,274-251,554-298c113-20,208-43,333-85c234-77,386-102,493-81c73,14,122,37,164,77c61,58,94,182,78,295s-29,143-156,375
		c-13,24-35,78-49,120c-33,100-132,304-183,380s-165,182-260,245c-141,92-226,123-495,183c-114,26-131,59-77,147c20,33,30,61,30,89
		c0,34-50,186-111,337c-18,44-6,62,62,89c62,25,233,56,281,51c32-3,33-5,36-53c2-27-2-76-8-107c-15-70-8-100,31-138
		c62-58,128-45,155,32c13,37,10,47-43,142c-25,46-45,144-33,166c10,19,63,50,85,50c6,0,30-9,53-20c22-11,45-20,49-20
		c5,0,28-20,51-45c41-44,44-45,103-45c54,0,64,3,91,30s30,36,25,73c-7,51-36,77-86,77s-262,81-259,99c4,21,164,72,234,75
		c127,5,193,114,104,174c-52,35-93,26-199-46c-70-47-98-60-140-65c-31-4-62-2-73,4c-23,12-21,40,14,152c18,59,27,72,64,98
		c48,33,59,55,49,105c-10,57-85,91-137,63c-25-14-48-67-41-100c7-38-79-289-99-289c-17,0-119,72-133,94c-7,12-16,39-19,61
		c-14,86-41,115-104,115c-30-1-50-14-75-50c-40-58-10-125,85-187c53-36,70-53,77-80c6-19,8-40,5-46c-2-7-30-22-62-34
		c-51-20-315-98-369-110c-30-7-100-68-118-104c-21-39-19-65,11-182c30-121,36-210,14-214c-12-3-171,116-270,201
		c-93,79-481,341-590,398c-198,102-435,164-716,188c-146,13-226,6-394-34c-85-20-346-34-336-18s60,155,107,295
		c124,373,93,480-156,552c-192,55-255,78-280,104c-27,26-83,172-84,217c-1,29,29,54,65,54c73,0,138,82,113,143c-19,45-48,67-90,67
		c-32,0-43-7-78-47c-23-27-56-68-74-93c-31-41-37-45-74-44c-52,1-83,21-123,79c-25,36-29,49-20,64c51,97-101,205-175,125
		c-44-47-26-120,44-188c22-21,45-52,52-68c11-28,10-32-32-74c-38-39-48-44-87-44c-29,0-53,7-69,20c-73,57-176-17-144-103
		c13-35,56-42,168-29c101,12,123,5,123-37c0-37-53-71-112-71c-50,0-93-25-109-63c-11-26-10-35,7-66c31-59,93-53,169,15
		c65,57,94,76,112,70c25-9,83-63,83-78c0-29-28-84-59-115c-30-30-33-38-28-71c7-40,46-82,77-82c61,0,83,44,84,168l1,94l36,12
		c38,13,44,12,104-14c64-29,121-75,156-127c29-41,34-57,34-106c0-54-3-60-35-85c-161-125-286-278-350-426c-19-46-20-46-67-46
		c-26,1-122,7-213,14c-142,12-180,19-272,50c-203,69-313,123-483,237c-162,110-259,216-333,364c-175,348-165,727,28,1150
		c130,285,339,498,628,644c135,68,242,103,437,142c333,67,628,74,1215,26c80-6,192-11,250-12c101,0,105,1,108,22c4,27-5,32-148,72
		c-277,78-515,109-880,115C2025,6156,1893,6156,1865,6154z"/>
</g>
</svg>
