<?xml version="1.0" standalone="no"?>
<!DOCTYPE svg PUBLIC "-//W3C//DTD SVG 20010904//EN"
 "http://www.w3.org/TR/2001/REC-SVG-20010904/DTD/svg10.dtd">
<svg version="1.0" xmlns="http://www.w3.org/2000/svg"
 width="647.000000pt" height="617.000000pt" viewBox="0 0 647.000000 617.000000"
 preserveAspectRatio="xMidYMid meet">
<metadata>
Created by potrace 1.15, written by Peter Selinger 2001-2017
</metadata>
<g transform="translate(0.000000,617.000000) scale(0.100000,-0.100000)"
fill="#000000" stroke="none">
<path d="M1865 6154 c-265 -20 -416 -48 -605 -110 -290 -97 -521 -233 -698
-413 -97 -99 -253 -295 -298 -376 -88 -157 -110 -202 -175 -360 -48 -117 -79
-326 -79 -533 0 -353 62 -580 219 -802 108 -153 456 -470 662 -602 171 -110
239 -140 428 -189 128 -32 170 -51 248 -112 91 -71 172 -206 232 -388 26 -76
31 -108 29 -160 l-3 -64 -43 -9 c-52 -11 -147 4 -200 32 -50 25 -89 78 -103
137 -27 111 -40 152 -59 182 -18 30 -24 33 -66 33 -40 0 -51 -5 -80 -36 -22
-23 -35 -47 -36 -67 -5 -98 18 -147 78 -167 70 -23 118 -132 81 -181 -46 -60
-151 -76 -252 -38 -69 26 -104 15 -142 -42 -49 -74 -39 -159 23 -208 36 -28
70 -26 116 5 39 27 163 65 185 57 22 -9 15 -22 -45 -83 -37 -38 -66 -60 -80
-60 -37 0 -80 -28 -98 -62 -21 -41 -6 -96 37 -132 54 -46 107 -28 145 47 22
41 93 126 117 139 15 7 23 6 35 -6 24 -24 19 -138 -8 -176 -29 -41 -27 -100 6
-135 23 -24 30 -27 72 -22 39 4 53 12 79 43 40 45 41 66 8 129 -31 57 -46 194
-25 220 42 51 80 -26 72 -150 -4 -75 -3 -82 21 -108 62 -66 167 -2 154 95 -3
22 -12 47 -21 57 -13 14 -66 134 -66 148 0 13 40 -8 144 -75 67 -43 132 -83
146 -89 34 -16 198 -70 238 -78 89 -18 155 40 191 171 13 50 15 303 2 371 -5
26 -15 82 -21 123 -7 41 -21 112 -31 158 -25 108 -25 109 14 132 24 15 49 20
102 19 142 -1 269 -74 660 -384 227 -180 412 -293 545 -333 36 -11 119 -25
185 -32 188 -17 189 -18 128 -90 -41 -47 -116 -86 -317 -164 -271 -105 -386
-198 -386 -311 0 -71 84 -192 190 -276 41 -32 214 -139 225 -139 3 0 30 -16
61 -36 80 -51 134 -110 134 -145 0 -47 -38 -115 -87 -155 -52 -43 -83 -88 -83
-122 0 -46 68 -112 114 -112 27 0 72 48 85 92 39 128 80 208 106 208 27 0 35
-40 35 -176 0 -132 1 -138 26 -171 83 -109 224 -67 224 67 0 50 -26 91 -81
125 -30 20 -41 35 -54 77 -26 89 -19 112 41 124 38 7 90 -27 119 -80 30 -53
68 -79 116 -79 81 0 129 58 109 132 -21 78 -76 121 -157 122 -101 1 -129 24
-132 107 -1 44 13 48 118 32 127 -20 154 -13 187 51 18 35 2 91 -34 120 -40
31 -91 22 -182 -34 -91 -57 -132 -62 -155 -17 -24 47 -18 73 35 143 63 83 70
114 38 152 -19 21 -33 28 -58 27 -70 -2 -103 -52 -120 -185 -4 -37 -14 -74
-20 -82 -9 -11 -34 -15 -90 -15 l-77 0 -124 80 c-68 44 -125 84 -127 89 -4 11
43 48 122 95 84 50 183 78 306 86 131 8 165 22 290 123 160 129 191 133 229
32 12 -31 21 -63 21 -73 0 -32 99 -218 158 -298 128 -173 274 -251 554 -298
113 -20 208 -43 333 -85 234 -77 386 -102 493 -81 73 14 122 37 164 77 61 58
94 182 78 295 -16 113 -29 143 -156 375 -13 24 -35 78 -49 120 -33 100 -132
304 -183 380 -51 76 -165 182 -260 245 -141 92 -226 123 -495 183 -114 26
-131 59 -77 147 20 33 30 61 30 89 0 34 -50 186 -111 337 -18 44 -6 62 62 89
62 25 233 56 281 51 32 -3 33 -5 36 -53 2 -27 -2 -76 -8 -107 -15 -70 -8 -100
31 -138 62 -58 128 -45 155 32 13 37 10 47 -43 142 -25 46 -45 144 -33 166 10
19 63 50 85 50 6 0 30 -9 53 -20 22 -11 45 -20 49 -20 5 0 28 -20 51 -45 41
-44 44 -45 103 -45 54 0 64 3 91 30 27 27 30 36 25 73 -7 51 -36 77 -86 77
-50 0 -262 81 -259 99 4 21 164 72 234 75 127 5 193 114 104 174 -52 35 -93
26 -199 -46 -70 -47 -98 -60 -140 -65 -31 -4 -62 -2 -73 4 -23 12 -21 40 14
152 18 59 27 72 64 98 48 33 59 55 49 105 -10 57 -85 91 -137 63 -25 -14 -48
-67 -41 -100 7 -38 -79 -289 -99 -289 -17 0 -119 72 -133 94 -7 12 -16 39 -19
61 -14 86 -41 115 -104 115 -30 -1 -50 -14 -75 -50 -40 -58 -10 -125 85 -187
53 -36 70 -53 77 -80 6 -19 8 -40 5 -46 -2 -7 -30 -22 -62 -34 -51 -20 -315
-98 -369 -110 -30 -7 -100 -68 -118 -104 -21 -39 -19 -65 11 -182 30 -121 36
-210 14 -214 -12 -3 -171 116 -270 201 -93 79 -481 341 -590 398 -198 102
-435 164 -716 188 -146 13 -226 6 -394 -34 -85 -20 -346 -34 -336 -18 10 16
60 155 107 295 124 373 93 480 -156 552 -192 55 -255 78 -280 104 -27 26 -83
172 -84 217 -1 29 29 54 65 54 73 0 138 82 113 143 -19 45 -48 67 -90 67 -32
0 -43 -7 -78 -47 -23 -27 -56 -68 -74 -93 -31 -41 -37 -45 -74 -44 -52 1 -83
21 -123 79 -25 36 -29 49 -20 64 51 97 -101 205 -175 125 -44 -47 -26 -120 44
-188 22 -21 45 -52 52 -68 11 -28 10 -32 -32 -74 -38 -39 -48 -44 -87 -44 -29
0 -53 7 -69 20 -73 57 -176 -17 -144 -103 13 -35 56 -42 168 -29 101 12 123 5
123 -37 0 -37 -53 -71 -112 -71 -50 0 -93 -25 -109 -63 -11 -26 -10 -35 7 -66
31 -59 93 -53 169 15 65 57 94 76 112 70 25 -9 83 -63 83 -78 0 -29 -28 -84
-59 -115 -30 -30 -33 -38 -28 -71 7 -40 46 -82 77 -82 61 0 83 44 84 168 l1
94 36 12 c38 13 44 12 104 -14 64 -29 121 -75 156 -127 29 -41 34 -57 34 -106
0 -54 -3 -60 -35 -85 -161 -125 -286 -278 -350 -426 -19 -46 -20 -46 -67 -46
-26 1 -122 7 -213 14 -142 12 -180 19 -272 50 -203 69 -313 123 -483 237 -162
110 -259 216 -333 364 -175 348 -165 727 28 1150 130 285 339 498 628 644 135
68 242 103 437 142 333 67 628 74 1215 26 80 -6 192 -11 250 -12 101 0 105 1
108 22 4 27 -5 32 -148 72 -277 78 -515 109 -880 115 -135 2 -267 2 -295 0z"/>
</g>
</svg>
